 <svg  version="1.0" xmlns="http://www.w3.org/2000/svg"  width="450.000000pt" height="488.000000pt" viewBox="0 0 450.000000 488.000000"  preserveAspectRatio="xMidYMid meet">  <g transform="translate(0.000000,488.000000) scale(0.100000,-0.100000)" fill="#0f0085" stroke="none"> <path d="M1910 4814 c-749 -109 -1331 -661 -1482 -1405 -20 -100 -23 -142 -22 -339 0 -251 13 -338 79 -536 230 -692 864 -1170 1590 -1201 370 -15 706 71 1010 259 400 249 701 678 795 1134 43 210 44 499 1 704 -154 739 -761 1298 -1511 1390 -114 14 -344 11 -460 -6z m471 -19 c236 -32 498 -125 678 -243 31 -20 66 -42 78 -48 75 -41 279 -229 361 -333 90 -113 162 -219 162 -239 0 -5 3 -12 8 -14 22 -9 128 -251 151 -343 7 -27 17 -61 22 -75 40 -112 59 -476 34 -653 -41 -297 -159 -579 -340 -812 -130 -167 -339 -355 -468 -421 -17 -9 -34 -20 -37 -24 -4 -6 -195 -104 -195 -100 0 2 -39 -12 -72 -26 -85 -38 -176 -62 -313 -84 -41 -6 -86 -13 -100 -16 -40 -6 -318 -6 -390 1 -71 7 -172 26 -263 50 -83 22 -251 86 -259 99 -4 6 -8 7 -8 3 0 -11 -161 76 -246 134 -202 136 -427 375 -518 549 -16 30 -38 67 -48 82 -10 15 -25 44 -32 65 -8 21 -24 61 -37 88 -12 28 -23 52 -24 55 -1 3 -13 43 -28 90 -55 178 -79 358 -71 540 6 142 11 202 23 232 4 13 6 28 4 34 -3 9 7 57 32 154 38 151 145 374 253 530 77 111 284 323 392 403 82 60 259 162 330 191 252 102 470 144 731 140 75 -1 161 -5 190 -9z"/> <path d="M1620 3973 c-14 -2 -49 -8 -77 -14 -29 -6 -55 -10 -58 -9 -18 3 -200 -112 -212 -134 -4 -8 -24 -32 -43 -53 -44 -47 -105 -169 -125 -246 -19 -75 -19 -217 0 -292 16 -64 71 -185 89 -197 6 -4 7 -8 1 -8 -5 0 27 -35 72 -79 130 -124 239 -171 402 -171 l96 0 0 -235 c0 -141 4 -240 10 -248 15 -21 94 -28 132 -12 l33 14 0 210 0 211 33 0 c56 0 71 -10 119 -78 58 -81 93 -129 150 -204 24 -31 50 -67 58 -79 49 -74 59 -79 147 -80 45 -1 87 2 93 6 12 7 5 54 -8 65 -4 3 -29 34 -57 70 -48 62 -58 75 -104 129 -12 13 -21 27 -21 30 0 4 -13 21 -30 39 -60 66 -99 125 -70 107 6 -3 10 -3 10 2 0 4 18 14 39 20 127 40 228 172 238 311 12 155 -57 273 -207 357 l-65 37 -232 1 c-203 2 -234 0 -249 -14 -14 -14 -17 -50 -20 -245 -2 -126 -4 -233 -4 -238 0 -4 -44 -7 -98 -4 -86 3 -107 8 -163 35 -68 34 -152 112 -187 174 -42 76 -54 135 -50 242 6 125 32 190 110 273 135 142 315 178 483 94 64 -32 107 -68 169 -143 l38 -47 63 0 c83 0 100 15 79 66 -61 145 -231 289 -379 320 -69 14 -164 22 -205 17z m172 -34 c29 -6 86 -27 127 -46 92 -44 202 -150 249 -240 l33 -63 -65 0 c-62 0 -65 1 -85 33 -29 47 -120 131 -169 156 -123 63 -276 67 -391 10 -82 -40 -176 -133 -212 -209 -89 -185 -55 -392 86 -536 98 -99 222 -144 358 -130 l67 8 0 249 0 250 233 -3 c227 -3 233 -4 289 -30 66 -31 137 -98 169 -160 17 -32 24 -65 27 -134 4 -83 2 -97 -23 -153 -46 -101 -154 -183 -261 -198 l-45 -6 24 -26 c13 -14 81 -100 152 -191 71 -91 142 -180 159 -197 l30 -33 -85 0 -84 1 -165 224 -165 225 -67 0 -68 0 0 -225 0 -225 -60 0 -60 0 0 258 0 259 -56 -11 c-82 -14 -200 5 -292 49 -84 40 -186 130 -238 212 -91 140 -115 339 -60 498 97 284 365 443 648 384z"/> <path d="M1910 3145 l0 -166 28 20 c38 26 100 96 114 126 9 21 18 24 79 27 38 2 69 1 69 -1 0 -2 -14 -29 -30 -60 -42 -79 -113 -157 -184 -203 l-59 -38 149 0 c173 0 207 11 266 79 93 108 68 279 -50 348 -46 27 -52 28 -214 31 l-168 4 0 -167z m383 99 c54 -45 77 -93 77 -157 0 -69 -12 -103 -53 -145 -50 -53 -81 -64 -179 -67 -49 -1 -91 1 -93 6 -3 4 18 32 47 62 29 30 59 65 67 78 24 40 61 118 61 129 0 16 -46 30 -101 30 -38 0 -53 -5 -67 -21 -59 -72 -106 -119 -111 -110 -4 6 -6 23 -5 38 1 15 3 66 3 112 l1 83 159 -4 c159 -5 160 -5 194 -34z"/> <path d="M3310 3600 c-10 -8 -23 -31 -30 -50 -19 -51 -49 -122 -60 -143 -6 -9 -21 -46 -35 -82 -13 -36 -31 -80 -39 -98 -8 -17 -27 -61 -42 -97 -14 -36 -35 -83 -45 -105 -10 -22 -41 -93 -68 -158 -32 -79 -50 -113 -55 -102 -3 9 -3 22 1 27 3 7 1 8 -6 4 -6 -4 -14 0 -18 11 -3 10 -14 37 -24 60 -11 23 -19 44 -19 47 0 3 -13 34 -29 68 -16 35 -50 115 -76 178 -26 63 -58 138 -70 165 -13 28 -42 95 -66 150 -57 135 -57 135 -141 135 -83 0 -89 -8 -60 -85 12 -30 18 -55 14 -55 -4 0 -2 -4 4 -8 13 -8 67 -127 67 -147 0 -8 4 -12 9 -9 4 3 8 0 8 -7 0 -26 382 -903 398 -915 9 -7 20 -10 24 -8 9 6 72 138 99 209 11 28 28 68 38 90 10 22 31 70 46 107 16 37 33 64 39 61 5 -3 6 -1 2 5 -8 14 60 178 73 175 6 -2 8 3 5 11 -6 15 206 517 216 511 4 -2 4 10 2 26 -3 20 -12 33 -28 39 -35 14 -115 7 -134 -10z m-581 -423 c96 -226 183 -432 194 -456 l19 -43 36 90 c21 49 107 254 192 456 l155 366 64 0 c46 0 62 -3 58 -12 -3 -7 -87 -204 -186 -438 -100 -234 -212 -496 -249 -582 -36 -87 -69 -158 -72 -158 -4 1 -482 1112 -508 1181 -2 5 25 9 60 9 l63 0 174 -413z"/> <path d="M686 905 c-20 -30 -36 -57 -36 -60 0 -3 21 -5 48 -5 49 1 78 20 141 93 l24 27 -70 0 -70 0 -37 -55z m74 31 c0 -3 -4 -8 -10 -11 -5 -3 -10 -1 -10 4 0 6 5 11 10 11 6 0 10 -2 10 -4z m0 -39 c0 -5 -6 -7 -14 -4 -7 3 -19 0 -25 -6 -7 -7 -11 -7 -11 -1 0 6 3 13 6 17 9 9 44 4 44 -6z"/> <path d="M299 787 c-159 -84 -190 -396 -45 -466 44 -22 77 -28 61 -12 -6 5 -21 11 -35 13 -22 4 -23 6 -7 13 12 5 25 1 40 -13 20 -19 25 -19 62 -7 43 15 111 84 121 122 4 16 -2 29 -23 47 -35 31 -37 31 -50 3 -9 -19 -7 -26 13 -44 13 -12 24 -27 24 -34 0 -6 -11 0 -26 16 -24 26 -26 26 -44 10 -22 -20 -72 -24 -78 -6 -10 30 -49 -14 -62 -72 l-8 -32 -1 38 c-1 30 5 45 27 66 23 23 27 37 28 87 3 102 58 211 95 189 9 -6 8 -24 -8 -92 -5 -22 -2 -23 60 -23 l66 0 7 45 c3 25 3 56 0 69 -10 39 -54 85 -94 96 -54 15 -74 13 -123 -13z m121 -7 c0 -5 -4 -10 -10 -10 -5 0 -10 5 -10 10 0 6 5 10 10 10 6 0 10 -4 10 -10z m-36 -25 c-7 -16 -24 -21 -24 -6 0 8 7 13 27 20 1 1 0 -6 -3 -14z m-40 -11 c9 -8 16 -21 16 -27 0 -8 -3 -7 -9 2 -11 17 -54 -54 -70 -116 -7 -23 -19 -47 -29 -52 -10 -6 -12 -11 -4 -11 29 0 -1 -140 -31 -140 -14 0 -27 51 -27 107 0 46 3 54 16 49 8 -3 22 1 30 9 9 8 12 15 7 15 -4 0 -2 4 5 9 20 12 24 72 7 92 -14 14 -12 19 17 48 36 35 50 38 72 15z m114 0 c12 -8 22 -22 22 -31 0 -12 -3 -13 -13 -4 -8 6 -23 9 -34 7 -16 -4 -19 0 -15 20 5 28 10 29 40 8z m5 -59 c4 -8 2 -17 -3 -20 -13 -8 -40 6 -40 21 0 19 36 18 43 -1z m-208 -25 c3 -5 1 -10 -4 -10 -6 0 -11 5 -11 10 0 6 2 10 4 10 3 0 8 -4 11 -10z m232 -25 c-7 -17 -67 -22 -67 -5 0 6 11 10 24 10 14 0 28 5 31 11 10 15 19 3 12 -16z m-234 -27 c-2 -5 -14 -8 -26 -7 -12 0 -17 3 -11 5 7 3 9 15 7 27 l-6 22 20 -20 c11 -11 19 -23 16 -27z m172 -218 c0 -8 -15 -23 -33 -33 -30 -18 -38 -18 -73 -7 -27 9 -39 19 -39 32 0 21 12 23 40 6 15 -10 25 -9 52 4 37 19 53 18 53 -2z"/> <path d="M2557 803 c-11 -18 -77 -238 -77 -256 0 -40 -12 -7 -36 100 -35 154 -34 153 -92 153 -27 0 -51 -2 -53 -5 -3 -2 18 -114 46 -247 l51 -243 62 -3 61 -3 46 148 c25 81 59 188 75 236 l29 88 -45 20 c-50 21 -61 23 -67 12z m26 -28 c-5 -13 -23 -22 -23 -11 0 15 14 35 21 31 4 -3 6 -12 2 -20z m-198 -15 c3 -6 -5 -10 -19 -10 -14 0 -28 5 -31 10 -3 6 5 10 19 10 14 0 28 -4 31 -10z m191 -183 c-29 -91 -52 -168 -51 -169 2 -2 -4 -9 -12 -17 -13 -12 -14 -11 -8 8 7 24 0 27 -20 7 -12 -12 -12 -16 0 -26 28 -23 17 -40 -24 -40 -31 0 -41 4 -46 20 -4 12 -1 27 5 35 13 16 -1 77 -25 105 -11 14 -35 95 -35 119 0 6 7 11 16 11 9 0 14 8 13 18 -3 38 1 48 13 27 7 -11 14 -29 15 -40 7 -43 23 -92 37 -110 22 -31 40 -6 75 103 25 78 36 101 58 114 16 9 31 14 35 10 4 -4 -16 -83 -46 -175z m-186 150 c20 1 21 0 7 -8 -19 -11 -67 -2 -67 13 0 6 7 7 18 2 9 -4 28 -7 42 -7z m-23 -51 c-3 -8 -1 -17 6 -19 7 -2 8 -8 4 -13 -11 -11 -27 15 -20 33 3 7 7 13 10 13 3 0 3 -6 0 -14z m37 -251 c5 -20 4 -27 -3 -20 -5 6 -12 28 -15 50 -7 43 5 24 18 -30z"/> <path d="M2491 486 c-9 -10 -8 -16 3 -26 18 -14 36 -5 35 18 0 11 -3 12 -6 5 -2 -7 -9 -13 -15 -13 -6 0 -8 7 -4 15 7 19 2 19 -13 1z"/> <path d="M2744 803 l-31 -4 -7 -125 c-3 -68 -9 -180 -12 -249 l-7 -125 67 0 c62 0 66 2 67 23 0 12 2 65 3 117 2 52 6 157 11 233 l7 137 -33 -2 c-19 0 -48 -3 -65 -5z m18 -31 c-18 -14 -23 -36 -32 -146 -5 -71 -13 -132 -16 -135 -4 -3 -4 32 0 79 3 47 7 112 7 145 1 33 3 62 5 65 1 3 14 7 29 8 27 2 27 2 7 -16z m46 -87 c-2 -47 -7 -85 -12 -85 -5 0 -6 -3 -3 -6 3 -4 0 -16 -8 -28 -8 -11 -15 -25 -15 -31 0 -5 5 -3 10 5 8 12 10 13 10 1 0 -8 -7 -22 -14 -30 -9 -9 -18 -47 -21 -86 l-6 -70 17 33 c16 31 34 43 34 22 0 -5 -4 -10 -8 -10 -5 0 -16 -16 -25 -35 -12 -25 -21 -33 -33 -28 -16 6 -16 35 2 133 3 14 10 79 17 146 11 113 24 154 49 154 5 0 8 -36 6 -85z m2 -125 c0 -5 -2 -10 -4 -10 -3 0 -8 5 -11 10 -3 6 -1 10 4 10 6 0 11 -4 11 -10z m-14 -89 c-1 -16 -3 -27 -5 -25 -3 3 -11 -6 -19 -18 -11 -19 -12 -19 -7 -3 4 11 9 32 12 48 7 36 20 35 19 -2z m14 -91 c0 -5 -5 -10 -11 -10 -5 0 -7 5 -4 10 3 6 8 10 11 10 2 0 4 -4 4 -10z m0 -30 c0 -5 -4 -10 -10 -10 -5 0 -10 5 -10 10 0 6 5 10 10 10 6 0 10 -4 10 -10z"/> <path d="M3750 803 c-88 -33 -143 -162 -136 -313 4 -75 14 -105 49 -142 52 -56 154 -54 215 5 50 48 72 120 72 234 0 112 -22 172 -74 204 -30 18 -93 24 -126 12z m95 -23 c3 -5 -1 -10 -10 -10 -9 0 -13 5 -10 10 3 6 8 10 10 10 2 0 7 -4 10 -10z m-65 -10 c0 -5 -4 -10 -10 -10 -5 0 -10 5 -10 10 0 6 5 10 10 10 6 0 10 -4 10 -10z m-23 -21 c8 -8 4 -24 -15 -60 -21 -42 -26 -67 -30 -157 -5 -112 -14 -141 -38 -121 -8 6 -11 16 -7 22 14 23 11 56 -6 71 -32 29 -7 174 39 224 31 35 40 38 57 21z m53 1 c0 -5 -4 -10 -10 -10 -5 0 -10 5 -10 10 0 6 5 10 10 10 6 0 10 -4 10 -10z m109 -99 l7 -61 -28 0 c-15 0 -28 -5 -28 -12 0 -6 -2 -9 -5 -7 -2 3 -1 19 4 36 7 23 4 40 -15 78 -21 45 -22 49 -6 61 30 22 62 -22 71 -95z m-99 50 c5 -11 10 -40 10 -65 0 -30 4 -46 13 -46 8 0 9 -3 1 -8 -6 -4 -14 -31 -17 -61 -7 -61 -29 -101 -56 -101 -25 0 -31 19 -31 98 1 77 14 147 36 180 18 27 30 28 44 3z m96 -145 c15 -16 19 -36 7 -36 -5 0 -13 11 -20 25 -13 28 -8 32 13 11z m-56 -6 c0 -5 -4 -10 -10 -10 -5 0 -10 5 -10 10 0 6 5 10 10 10 6 0 10 -4 10 -10z m30 -20 c0 -5 -5 -10 -11 -10 -5 0 -7 5 -4 10 3 6 8 10 11 10 2 0 4 -4 4 -10z m26 -34 c15 -16 18 -26 6 -26 -4 0 -13 9 -20 20 -14 23 -7 26 14 6z m-46 -6 c-19 -13 -30 -13 -30 0 0 6 10 10 23 10 18 0 19 -2 7 -10z m-210 -10 c0 -5 -4 -10 -10 -10 -5 0 -10 5 -10 10 0 6 5 10 10 10 6 0 10 -4 10 -10z m221 -33 c-8 -8 -11 -7 -11 4 0 20 13 34 18 19 3 -7 -1 -17 -7 -23z m-226 4 c3 -5 1 -12 -5 -16 -5 -3 -10 1 -10 9 0 18 6 21 15 7z m265 -1 c0 -5 -5 -10 -11 -10 -5 0 -7 5 -4 10 3 6 8 10 11 10 2 0 4 -4 4 -10z m-71 -21 c-16 -10 -23 -4 -14 10 3 6 11 8 17 5 6 -4 5 -9 -3 -15z m-189 -29 c0 -5 -4 -10 -10 -10 -5 0 -10 5 -10 10 0 6 5 10 10 10 6 0 10 -4 10 -10z m230 0 c0 -5 -5 -10 -11 -10 -5 0 -7 5 -4 10 3 6 8 10 11 10 2 0 4 -4 4 -10z m-160 -10 c0 -5 -4 -10 -10 -10 -5 0 -10 5 -10 10 0 6 5 10 10 10 6 0 10 -4 10 -10z m130 0 c0 -5 -4 -10 -10 -10 -5 0 -10 5 -10 10 0 6 5 10 10 10 6 0 10 -4 10 -10z m-165 -20 c3 -5 1 -10 -4 -10 -6 0 -11 5 -11 10 0 6 2 10 4 10 3 0 8 -4 11 -10z m81 -10 c0 -14 -7 -20 -23 -20 -25 0 -29 10 -11 28 18 18 34 14 34 -8z m34 0 c0 -5 -4 -10 -10 -10 -5 0 -10 5 -10 10 0 6 5 10 10 10 6 0 10 -4 10 -10z m50 -4 c0 -3 -4 -8 -10 -11 -5 -3 -10 -1 -10 4 0 6 5 11 10 11 6 0 10 -2 10 -4z"/> <path d="M644 793 l-71 -4 -7 -47 c-4 -26 -9 -109 -13 -184 -5 -124 -4 -138 10 -138 10 0 17 6 17 14 0 24 21 30 38 11 16 -17 16 -17 0 -12 -10 3 -20 2 -23 -3 -4 -6 1 -10 10 -10 9 0 13 -4 10 -10 -3 -5 -19 -7 -35 -3 -27 5 -30 3 -30 -20 0 -16 7 -27 18 -30 16 -4 16 -5 0 -6 -12 -1 -18 -9 -18 -25 0 -24 1 -24 88 -20 48 2 112 7 142 11 30 3 64 7 75 7 12 1 19 8 19 19 -1 9 -2 35 -3 57 l-1 40 -76 -1 c-60 -1 -74 -4 -70 -16 3 -7 -1 -16 -10 -20 -21 -8 -32 6 -14 17 12 8 10 10 -7 10 -19 0 -23 6 -23 29 0 30 14 41 55 41 13 0 46 5 72 10 l48 11 2 44 1 45 -87 0 -88 0 5 29 c4 29 4 29 108 42 l104 12 0 53 0 54 -87 -2 c-49 -1 -120 -4 -159 -5z m56 -29 c0 -2 -7 -4 -15 -4 -8 0 -15 4 -15 10 0 5 7 7 15 4 8 -4 15 -8 15 -10z m40 -4 c0 -5 -4 -10 -9 -10 -6 0 -13 5 -16 10 -3 6 1 10 9 10 9 0 16 -4 16 -10z m120 -15 c0 -14 -6 -25 -12 -26 -7 0 -22 -2 -33 -4 -45 -9 -128 15 -112 32 5 4 11 3 15 -3 4 -6 18 -7 32 -3 14 4 18 8 10 9 -23 3 30 18 68 19 28 1 32 -2 32 -24z m-185 5 c11 -5 16 -9 12 -9 -4 -1 -4 -9 1 -18 8 -13 4 -21 -14 -36 -32 -25 -32 -70 0 -102 14 -14 28 -21 31 -15 3 6 12 10 18 10 7 0 6 -4 -3 -10 -9 -6 -10 -10 -3 -10 6 0 15 5 18 10 3 6 19 10 36 10 22 0 29 -5 29 -19 0 -14 -10 -20 -37 -25 -56 -9 -73 -7 -73 7 0 7 -9 20 -19 29 -18 16 -21 15 -35 -7 -9 -14 -16 -38 -16 -55 0 -24 -4 -30 -21 -30 -20 0 -21 2 -14 133 4 72 9 135 12 140 6 9 53 8 78 -3z m165 -160 c0 -5 -5 -10 -11 -10 -5 0 -7 5 -4 10 3 6 8 10 11 10 2 0 4 -4 4 -10z m-170 -64 c0 -27 -15 -50 -27 -43 -7 5 -10 39 -4 69 3 17 31 -6 31 -26z m-19 -63 c0 -5 2 -20 4 -35 2 -16 -1 -28 -6 -28 -5 0 -9 3 -10 8 0 4 -3 19 -5 35 -3 15 0 27 6 27 5 0 10 -3 11 -7z m189 -63 c0 -5 -15 -9 -32 -9 l-33 1 30 8 c17 4 31 8 33 9 1 0 2 -3 2 -9z m-260 -20 c0 -5 -4 -10 -10 -10 -5 0 -10 5 -10 10 0 6 5 10 10 10 6 0 10 -4 10 -10z m80 0 c0 -5 7 -10 15 -10 10 0 15 -9 14 -27 -1 -17 -3 -21 -6 -10 -6 22 -23 22 -23 0 0 -28 -13 -5 -15 27 -2 16 1 30 6 30 5 0 9 -4 9 -10z m-27 -23 c3 -8 1 -20 -4 -28 -7 -11 -9 -8 -9 9 0 13 -4 20 -10 17 -6 -4 -8 -10 -5 -15 3 -5 1 -11 -5 -15 -6 -4 -10 5 -10 19 0 19 5 26 19 26 10 0 21 -6 24 -13z m106 -14 c0 -16 -3 -22 -6 -15 -2 6 -9 12 -14 12 -6 0 -7 -4 -4 -10 3 -5 1 -10 -4 -10 -6 0 -11 11 -11 25 0 18 5 25 20 25 15 0 20 -6 19 -27z m59 5 c2 -10 -1 -18 -7 -18 -6 0 -12 8 -12 18 -1 16 -2 16 -6 0 -6 -25 -23 -22 -23 3 0 15 5 20 22 17 13 -2 24 -11 26 -20z m59 -3 c3 -19 2 -19 -5 -1 -8 17 -9 17 -25 2 -16 -16 -17 -16 -17 4 0 29 44 24 47 -5z"/> <path d="M1030 778 c-33 -17 -51 -35 -67 -68 -45 -89 -25 -145 77 -210 51 -32 65 -55 54 -84 -8 -22 -41 -20 -89 4 -22 11 -43 20 -47 20 -4 0 -17 -18 -28 -39 -22 -44 -20 -48 45 -76 52 -23 141 -23 183 -1 68 35 92 127 52 194 -11 18 -42 47 -69 63 -61 38 -79 69 -63 105 17 35 36 25 40 -20 l3 -37 57 3 c65 3 72 14 52 88 -21 77 -111 103 -200 58z m153 -30 c9 -5 17 -12 18 -16 7 -64 4 -72 -23 -72 -20 0 -28 5 -28 18 0 18 -34 62 -47 62 -4 0 -17 -10 -30 -22 -37 -35 -32 -89 14 -133 20 -19 30 -35 22 -35 -9 0 -6 -7 8 -22 17 -16 25 -19 36 -10 10 9 17 5 31 -19 10 -17 15 -33 11 -37 -4 -4 -10 -1 -12 5 -4 10 -7 10 -16 0 -22 -23 -59 -105 -53 -116 11 -17 -88 -14 -129 3 -34 15 -44 29 -26 40 5 3 25 -1 45 -9 70 -29 116 -9 116 51 0 33 -4 37 -109 122 -36 29 -41 38 -41 73 0 48 22 94 53 110 51 28 115 31 160 7z m-33 -212 c0 -3 -4 -8 -10 -11 -5 -3 -10 -1 -10 4 0 6 5 11 10 11 6 0 10 -2 10 -4z m30 -86 c0 -5 -5 -10 -11 -10 -5 0 -7 5 -4 10 3 6 8 10 11 10 2 0 4 -4 4 -10z m20 -42 c0 -4 -12 -8 -26 -8 -14 0 -23 4 -19 9 6 11 45 10 45 -1z"/> <path d="M1438 793 c-9 -2 -19 -10 -21 -16 -83 -201 -157 -417 -157 -456 0 -7 23 -11 65 -11 l64 0 12 39 c10 34 16 40 48 45 68 11 70 10 73 -41 l3 -48 68 -1 c52 -1 67 2 67 14 0 8 -11 78 -26 156 -54 300 -65 327 -137 325 -23 -1 -49 -3 -59 -6z m64 -48 c-2 -14 -9 -25 -16 -25 -6 0 -4 -4 4 -10 8 -5 11 -12 7 -16 -3 -4 -15 -1 -24 7 -17 12 -16 11 0 -7 18 -18 19 -18 32 -1 13 18 14 17 17 -5 2 -17 9 -22 24 -21 17 2 23 -5 28 -29 11 -56 8 -68 -19 -68 -14 0 -23 -5 -21 -12 5 -24 -8 7 -24 52 -23 68 -46 61 -93 -25 -31 -58 -36 -74 -28 -92 10 -22 31 -30 44 -17 11 11 87 11 86 0 -3 -30 2 -38 22 -33 15 4 18 2 10 -7 -6 -7 -7 -16 -3 -21 4 -4 -4 -2 -17 5 -15 7 -41 10 -66 6 -37 -4 -45 -2 -59 17 l-15 22 -21 -25 c-40 -48 -44 -61 -21 -67 35 -9 25 -33 -14 -33 -27 0 -35 4 -35 18 0 41 71 243 93 263 13 12 16 18 6 14 -10 -4 -16 0 -16 10 0 9 6 14 14 11 8 -3 13 2 13 13 0 26 27 88 41 93 6 2 22 5 34 6 18 1 21 -3 17 -23z m38 -16 c0 -6 -4 -7 -10 -4 -5 3 -10 11 -10 16 0 6 5 7 10 4 6 -3 10 -11 10 -16z m-56 -106 c3 -10 8 -39 12 -65 6 -47 6 -48 -21 -48 -25 0 -27 2 -19 28 5 15 8 44 8 65 0 39 11 50 20 20z m-30 -40 c-8 -34 -43 -103 -44 -87 0 6 6 27 14 45 7 19 16 42 19 52 10 27 18 20 11 -10z m126 -59 c0 -8 -4 -14 -10 -14 -5 0 -10 9 -10 21 0 11 5 17 10 14 6 -3 10 -13 10 -21z m-24 -42 c-4 -3 -11 0 -16 8 -15 24 -11 33 6 15 9 -9 13 -19 10 -23z m44 -2 c0 -11 -7 -20 -15 -20 -18 0 -19 12 -3 28 16 16 18 15 18 -8z m-200 -56 c0 -8 -5 -12 -10 -9 -6 4 -8 11 -5 16 9 14 15 11 15 -7z m206 -40 c9 -30 13 -58 10 -61 -3 -3 -9 3 -12 13 -4 10 -12 25 -18 33 -12 16 -15 71 -4 71 4 0 15 -25 24 -56z m-246 6 c0 -5 -5 -10 -11 -10 -5 0 -7 5 -4 10 3 6 8 10 11 10 2 0 4 -4 4 -10z m204 -55 c-4 -8 -8 -15 -10 -15 -2 0 -4 7 -4 15 0 8 4 15 10 15 5 0 7 -7 4 -15z"/> <path d="M1786 789 c-32 -5 -60 -10 -62 -12 -3 -3 -34 -413 -34 -449 0 -15 8 -18 60 -18 l60 0 0 75 c0 71 1 75 23 75 17 0 31 -17 65 -80 l43 -80 47 31 c26 18 49 34 51 35 2 2 -15 35 -38 74 l-41 71 29 25 c60 50 69 180 18 232 -23 23 -36 27 -94 28 -38 2 -95 -2 -127 -7z m107 -39 c-6 -23 -33 -27 -33 -6 0 13 13 23 32 25 3 1 4 -8 1 -19z m60 11 c45 -17 58 -39 52 -85 -4 -22 -8 -54 -9 -70 -2 -15 -15 -39 -28 -53 -21 -21 -29 -23 -45 -14 -12 6 -23 21 -26 33 -6 20 -3 19 18 -7 l24 -30 1 26 c0 14 5 30 12 37 6 6 9 15 5 19 -4 3 -14 -2 -22 -13 -8 -10 -15 -15 -15 -10 0 6 12 23 27 38 15 15 22 28 17 28 -6 0 -10 16 -11 35 -1 22 3 33 10 28 6 -3 7 -1 3 6 -10 15 -26 4 -26 -17 0 -13 -3 -13 -12 -4 -10 10 -10 17 -1 32 10 15 9 19 -5 23 -9 3 -12 5 -5 6 6 0 23 -3 36 -8z m-100 -20 c2 -10 1 -25 -4 -32 -7 -12 -9 -11 -9 1 -1 28 -50 -40 -50 -70 0 -26 -1 -27 -25 -17 -26 13 -31 36 -19 95 5 24 13 32 33 35 57 9 69 7 74 -12z m61 -6 c-4 -8 -8 -15 -10 -15 -2 0 -4 7 -4 15 0 8 4 15 10 15 5 0 7 -7 4 -15z m11 -55 c15 -25 -41 -90 -90 -104 -19 -5 -20 -2 -17 49 4 58 8 62 69 64 17 0 35 -3 38 -9z m-131 -106 c28 -32 35 -35 54 -25 28 15 28 15 42 -20 7 -17 23 -35 36 -39 28 -11 58 -66 48 -88 -4 -10 -6 -25 -5 -34 4 -36 -25 -17 -53 35 -38 68 -55 87 -79 87 -39 0 -57 -28 -57 -92 l0 -58 -31 0 -32 0 7 61 c3 34 6 86 6 115 0 47 2 54 20 54 11 0 20 5 20 10 0 6 -4 10 -10 10 -5 0 -10 5 -10 10 0 18 11 11 44 -26z m136 -65 c0 -6 -4 -7 -10 -4 -5 3 -10 11 -10 16 0 6 5 7 10 4 6 -3 10 -11 10 -16z m70 -129 c0 -5 -2 -10 -4 -10 -3 0 -8 5 -11 10 -3 6 -1 10 4 10 6 0 11 -4 11 -10z"/> <path d="M2919 788 l-46 -10 -6 -101 c-4 -56 -10 -165 -13 -241 l-7 -139 83 7 c101 9 118 15 167 60 51 45 82 111 94 194 16 111 -7 182 -73 222 -36 22 -117 25 -199 8z m151 -18 c0 -5 -4 -10 -10 -10 -5 0 -10 5 -10 10 0 6 5 10 10 10 6 0 10 -4 10 -10z m9 -23 c14 9 23 9 36 -1 15 -11 15 -13 1 -25 -9 -8 -16 -20 -16 -27 0 -8 -4 -14 -10 -14 -5 0 -10 3 -10 8 0 4 -16 16 -35 26 -34 19 -46 36 -24 36 5 0 7 6 3 13 -4 6 3 3 15 -8 18 -15 26 -17 40 -8z m-119 -2 c9 -11 16 -12 25 -5 9 8 14 7 18 -2 2 -7 -9 -24 -24 -38 -28 -24 -29 -29 -31 -122 -2 -54 -7 -98 -11 -98 -12 0 2 -41 21 -62 23 -27 40 -22 85 22 39 40 40 40 54 20 8 -12 19 -17 26 -13 20 12 -38 -60 -64 -79 -24 -18 -114 -38 -137 -30 -9 3 -9 9 -1 23 13 24 -5 51 -27 42 -13 -5 -14 8 -9 87 3 51 10 101 16 111 5 11 7 45 3 83 -7 66 -7 67 37 75 4 0 12 -6 19 -14z m180 -56 c0 -5 -4 -9 -10 -9 -5 0 -10 7 -10 16 0 8 5 12 10 9 6 -3 10 -10 10 -16z m-64 -43 c7 -31 -12 -133 -31 -163 -16 -23 -63 -59 -69 -52 -9 9 -9 40 -2 141 8 106 8 107 34 110 37 5 61 -8 68 -36z m81 -33 c2 -62 1 -65 -14 -50 -13 13 -14 19 -4 31 9 11 9 15 -1 19 -10 4 -10 7 1 15 11 8 11 10 0 14 -11 4 -10 8 1 21 8 9 15 16 15 17 0 0 1 -30 2 -67z m-265 27 c-2 -16 -6 -30 -8 -30 -2 0 -4 14 -4 30 0 17 4 30 8 30 5 0 7 -13 4 -30z m222 15 c3 -8 1 -15 -4 -15 -6 0 -10 7 -10 15 0 8 2 15 4 15 2 0 6 -7 10 -15z m3 -56 c1 -12 1 -20 0 -18 -2 2 -9 12 -16 22 -11 14 -11 17 1 17 7 0 14 -10 15 -21z m-17 -9 c0 -5 -5 -10 -11 -10 -5 0 -7 5 -4 10 3 6 8 10 11 10 2 0 4 -4 4 -10z m44 -53 c4 4 4 0 0 -10 -3 -9 -12 -17 -20 -17 -8 0 -14 -7 -14 -15 0 -8 5 -15 10 -15 6 0 10 -4 10 -10 0 -5 -4 -10 -10 -10 -15 0 -25 53 -12 58 7 2 10 14 6 30 -5 27 -5 27 8 4 8 -12 17 -19 22 -15z m-234 -156 c0 -5 -7 -14 -15 -21 -16 -14 -18 -10 -9 14 6 17 24 22 24 7z"/> <path d="M3315 788 c-33 -5 -61 -11 -62 -12 -3 -3 -33 -406 -33 -443 0 -21 4 -23 60 -23 l60 0 0 75 c0 72 1 75 24 75 14 0 27 -8 31 -17 3 -10 22 -46 41 -81 l35 -62 47 32 c26 17 48 32 50 34 2 1 -15 35 -38 74 l-41 73 22 15 c30 21 59 89 59 142 0 54 -29 106 -66 120 -31 12 -107 11 -189 -2z m128 -25 c-18 -7 -16 -24 2 -17 8 4 15 1 15 -6 0 -6 -4 -8 -10 -5 -5 3 -10 0 -10 -7 0 -10 -2 -10 -9 1 -7 10 -13 11 -30 2 -11 -7 -21 -16 -21 -22 0 -6 -5 -7 -11 -4 -5 4 -19 -1 -30 -11 -28 -25 -27 -113 1 -137 12 -10 25 -15 31 -11 15 9 61 -5 54 -16 -8 -12 19 -40 37 -40 23 0 48 -64 41 -104 -8 -48 -23 -45 -53 10 -49 94 -81 114 -122 77 -13 -12 -18 -31 -18 -75 l0 -58 -31 0 -32 0 7 61 c3 34 6 86 6 115 0 46 3 54 19 54 17 0 31 18 31 40 0 5 -9 12 -20 15 -16 5 -20 15 -20 53 0 26 4 52 8 58 4 6 29 15 57 20 57 10 126 15 108 7z m76 -24 c12 -11 21 -28 21 -39 0 -10 3 -27 6 -37 5 -15 4 -15 -5 -3 -8 12 -11 6 -11 -27 0 -30 -7 -50 -24 -70 -23 -26 -25 -26 -32 -9 -4 11 0 30 11 50 l18 31 -26 -24 c-15 -14 -27 -20 -27 -14 0 6 7 16 16 23 20 18 41 55 24 45 -8 -5 -10 -2 -6 11 3 11 1 26 -4 34 -7 11 -10 11 -10 2 0 -7 -5 -10 -10 -7 -8 5 -8 11 0 20 6 7 8 19 4 28 -8 21 27 12 55 -14z m-67 -78 c-3 -32 -28 -59 -71 -77 -18 -8 -34 -14 -35 -14 0 0 1 24 2 54 4 60 10 65 72 63 31 -2 35 -5 32 -26z m-5 -97 c8 -17 8 -24 1 -22 -13 5 -31 48 -20 48 4 0 12 -12 19 -26z m13 -55 c0 -6 -4 -7 -10 -4 -5 3 -10 11 -10 16 0 6 5 7 10 4 6 -3 10 -11 10 -16z m70 -129 c0 -5 -2 -10 -4 -10 -3 0 -8 5 -11 10 -3 6 -1 10 4 10 6 0 11 -4 11 -10z"/> <path d="M4092 779 c-51 -25 -82 -78 -82 -139 0 -57 22 -95 73 -124 24 -14 53 -37 66 -50 19 -20 21 -28 12 -45 -15 -28 -46 -26 -98 3 l-43 25 -19 -42 c-23 -52 -17 -59 63 -88 125 -43 236 19 236 133 0 48 -27 85 -95 133 -64 44 -78 74 -52 109 19 26 37 12 37 -30 l0 -34 55 0 55 0 0 51 c0 63 -13 87 -55 105 -49 20 -103 17 -153 -7z m161 -37 c10 -9 17 -29 17 -49 0 -29 -3 -33 -25 -33 -15 0 -25 6 -25 14 0 24 -43 68 -61 61 -8 -3 -23 -19 -33 -36 -23 -39 -14 -81 25 -113 16 -14 29 -34 29 -44 0 -23 19 -33 50 -25 17 4 21 2 18 -8 -3 -8 -12 -14 -20 -13 -9 1 -15 -11 -16 -34 -2 -20 -10 -51 -18 -68 -9 -18 -13 -38 -9 -43 10 -17 -90 -14 -130 3 -19 8 -35 19 -35 25 0 19 20 22 49 6 44 -22 87 -19 105 7 35 49 14 89 -74 148 -51 34 -60 49 -60 102 0 38 6 54 28 79 41 46 143 58 185 21z m-43 -212 c0 -5 -2 -10 -4 -10 -3 0 -8 5 -11 10 -3 6 -1 10 4 10 6 0 11 -4 11 -10z m55 -49 c3 -5 1 -12 -5 -16 -5 -3 -10 1 -10 9 0 18 6 21 15 7z m0 -62 c-6 -16 -45 -23 -45 -8 0 5 9 9 20 9 11 0 20 5 20 12 0 6 2 9 5 6 3 -3 3 -12 0 -19z m-55 -49 c0 -5 -5 -10 -11 -10 -5 0 -7 5 -4 10 3 6 8 10 11 10 2 0 4 -4 4 -10z"/> <path d="M460 324 c0 -9 -14 -29 -31 -45 -17 -16 -27 -29 -21 -29 14 0 62 58 62 76 0 8 -2 14 -5 14 -3 0 -5 -7 -5 -16z"/> <path d="M231 280 c0 -15 4 -31 11 -38 13 -13 60 -16 72 -5 4 4 24 7 44 6 l37 -1 -35 7 c-19 4 -40 3 -47 -2 -6 -5 -24 -7 -40 -5 -22 2 -29 9 -34 33 -6 28 -7 28 -8 5z"/> <path d="M561 254 c0 -11 3 -14 6 -6 3 7 2 16 -1 19 -3 4 -6 -2 -5 -13z"/> <path d="M620 261 c0 -5 -8 -12 -17 -14 -14 -4 -12 -5 5 -6 13 -1 22 5 22 14 0 8 -2 15 -5 15 -3 0 -5 -4 -5 -9z"/> <path d="M535 250 c-3 -5 -1 -10 4 -10 6 0 11 5 11 10 0 6 -2 10 -4 10 -3 0 -8 -4 -11 -10z"/> </g> </svg> 